<svg xmlns="http://www.w3.org/2000/svg" viewBox="0 0 868.43 290.42"><defs><style>.cls-1{fill:#2a35b8;}.cls-2{fill:#f24b2a;}</style></defs><g id="Capa_2" data-name="Capa 2"><g id="FRASE_2" data-name="FRASE 2"><path class="cls-1" d="M250.79,207.17a50.52,50.52,0,0,0,7.66,14.16,51.21,51.21,0,0,0,11.44,10.91,51.82,51.82,0,0,0,14.26,6.93,54.81,54.81,0,0,0,16.37,2.41q21.62,0,34-11.33a32.85,32.85,0,0,1,8.18-4.3,23.29,23.29,0,0,1,7.55-1.37,18.6,18.6,0,0,1,10.49,3,24.6,24.6,0,0,1,7.56,7.86,24.85,24.85,0,0,1,3,7.24,21.27,21.27,0,0,1,.42,7.87,24,24,0,0,1-2.52,7.87,21.56,21.56,0,0,1-6,7,86.12,86.12,0,0,1-10.49,8.08,70.07,70.07,0,0,1-13.53,6.82A98.94,98.94,0,0,1,322,285.12a117.68,117.68,0,0,1-21.51,1.78,97.47,97.47,0,0,1-39-7.87,101.26,101.26,0,0,1-31.89-21.5A103.27,103.27,0,0,1,208,225.74a99.31,99.31,0,0,1,0-78,101.07,101.07,0,0,1,53.51-53.19,100.6,100.6,0,0,1,77.75-.11,104.49,104.49,0,0,1,31.89,21.09A100.32,100.32,0,0,1,393,146.94a95.81,95.81,0,0,1,8.29,38.61q0,9.66-6.19,15.64t-16.26,6ZM354.45,169.4a47.81,47.81,0,0,0-7.24-15.53,48.49,48.49,0,0,0-11.86-11.75,52.87,52.87,0,0,0-15.52-7.35,64.71,64.71,0,0,0-18.26-2.52,61.17,61.17,0,0,0-18.15,2.63,52.41,52.41,0,0,0-15.32,7.55,50.12,50.12,0,0,0-11.64,11.75,48.26,48.26,0,0,0-7.14,15.22Z"/><path class="cls-1" d="M498.76,253.93A25.83,25.83,0,0,0,494,246.2a23.12,23.12,0,0,0-7.78-5.63,23.62,23.62,0,0,0-9.77-2.06c-3.06,0-5.37-.67-7.07-2-.48-.39-1.75-1.42-1.75-5.28V96.43a23.62,23.62,0,0,0-2.06-9.77A24.32,24.32,0,0,0,460,78.89a26.28,26.28,0,0,0-7.69-5A24.5,24.5,0,0,0,442.69,72a23.07,23.07,0,0,0-9.45,2,24,24,0,0,0-7.47,5.22,25,25,0,0,0-5,7.63,24.46,24.46,0,0,0-1.92,9.61v136a58,58,0,0,0,4.88,22.21,52.43,52.43,0,0,0,12.55,17.46,57.45,57.45,0,0,0,18.14,11.13,60.68,60.68,0,0,0,22,4,23.48,23.48,0,0,0,24.14-24A24.9,24.9,0,0,0,498.76,253.93Z"/><path class="cls-1" d="M684.36,121.43a83.1,83.1,0,0,0-17.4-26A82,82,0,0,0,641,77.9a81.65,81.65,0,0,0-63.66,0,83.46,83.46,0,0,0-25.94,17.56,84.63,84.63,0,0,0-17.63,25.91,78.74,78.74,0,0,0-6.55,31.91V262.89a23.51,23.51,0,0,0,1.94,9.51,24.21,24.21,0,0,0,12.44,12.54,23.34,23.34,0,0,0,18.77,0,23,23,0,0,0,7.21-5.19,22.43,22.43,0,0,0,4.67-7.69,26.44,26.44,0,0,0,1.56-9.15V227a85.07,85.07,0,0,0,11.59,4.57,79,79,0,0,0,23.66,3.54A80.21,80.21,0,0,0,641,228.66,81.56,81.56,0,0,0,684.36,185a82.7,82.7,0,0,0,0-63.61Zm-40.23,31.85a34.9,34.9,0,0,1-2.7,13.61,34.83,34.83,0,0,1-18.66,18.87,34.42,34.42,0,0,1-13.72,2.76,33.81,33.81,0,0,1-13.63-2.75,35.92,35.92,0,0,1-18.86-18.93,34,34,0,0,1-2.76-13.56,34.42,34.42,0,0,1,2.76-13.72,35.38,35.38,0,0,1,7.59-11.2,36.92,36.92,0,0,1,11.33-7.56A34.09,34.09,0,0,1,609.05,118a34.49,34.49,0,0,1,13.72,2.76A35.87,35.87,0,0,1,634,128.33a35.12,35.12,0,0,1,10.14,24.95Z"/><path class="cls-1" d="M866.73,86.19a23.23,23.23,0,0,0-4.77-7.3,22.74,22.74,0,0,0-7.12-5,21.92,21.92,0,0,0-9-1.85,23.3,23.3,0,0,0-9,1.79,23,23,0,0,0-7.51,5,24.64,24.64,0,0,0-5,7.15,21.28,21.28,0,0,0-2,9v59.54a34.83,34.83,0,0,1-2.64,13.58,35.72,35.72,0,0,1-7.23,11,33.56,33.56,0,0,1-10.73,7.38,32.85,32.85,0,0,1-13.26,2.7,35,35,0,0,1-13.46-2.59,33.19,33.19,0,0,1-20.73-31.12V95a22.29,22.29,0,0,0-1.83-8.9,23.75,23.75,0,0,0-4.95-7.26,23.26,23.26,0,0,0-7.39-5,22.93,22.93,0,0,0-17.86,0,22.21,22.21,0,0,0-7.36,5,24,24,0,0,0-4.8,7.19,22.05,22.05,0,0,0-1.83,8.9v60.19A78.23,78.23,0,0,0,713,182a81.15,81.15,0,0,0,12.75,22.9,82.37,82.37,0,0,0,19.24,17.5,78.44,78.44,0,0,0,20.19,9.45V265a22.59,22.59,0,0,0,23.09,23.09,22.26,22.26,0,0,0,8.9-1.83,24.21,24.21,0,0,0,7.19-4.8,22.35,22.35,0,0,0,5-7.37,23.16,23.16,0,0,0,1.81-9.09V232a78,78,0,0,0,20.32-9.31,81,81,0,0,0,19.43-17.53,82.25,82.25,0,0,0,12.83-23,78.13,78.13,0,0,0,4.7-27V95A23.09,23.09,0,0,0,866.73,86.19Z"/><path class="cls-2" d="M851.2,35.11v0a.28.28,0,0,0,0-.09l-.14-6.42a29.2,29.2,0,0,0-58.38,0L792.53,35s0,.06,0,.09a.43.43,0,0,0,0,0v.25h0a11.68,11.68,0,0,0,23.35,0h0L816.2,29a5.67,5.67,0,0,1,11.33,0l.26,6.39h0a11.68,11.68,0,0,0,23.35,0h0Z"/><path class="cls-2" d="M784.48,35l-.14-6.42a29.2,29.2,0,0,0-58.38,0L725.82,35s0,.06,0,.09v.3h0a11.68,11.68,0,0,0,23.35,0h0l.26-6.39a5.67,5.67,0,0,1,11.34,0l.26,6.39h0a11.68,11.68,0,0,0,23.35,0h0v-.3S784.48,35,784.48,35Z"/><path class="cls-1" d="M183.31,189.51a23.84,23.84,0,0,0-5.57-7.92,26.64,26.64,0,0,0-7.77-5,25,25,0,0,0-9.85-2H122.54a24.59,24.59,0,0,0-9.7,2,24,24,0,0,0-8,5.42,25.75,25.75,0,0,0-5.09,7.66,24.07,24.07,0,0,0-2,9.7,24.56,24.56,0,0,0,2,9.7,26.51,26.51,0,0,0,5,7.77,24.45,24.45,0,0,0,7.89,5.6,24,24,0,0,0,9.88,2.12h12.69v6.74a43.27,43.27,0,0,1-13,6.52,69.18,69.18,0,0,1-19.59,2.67A49.53,49.53,0,0,1,82,236.16a54.19,54.19,0,0,1-28-28.89,52.87,52.87,0,0,1-4-20.39,52.29,52.29,0,0,1,4.24-21.12A54,54,0,0,1,82.8,137.25a53.42,53.42,0,0,1,40.72-.14,55.9,55.9,0,0,1,18.25,12.25,24.24,24.24,0,0,0,17,6.85,24.64,24.64,0,0,0,17.78-7.29,23.29,23.29,0,0,0,5.74-8.38,24.31,24.31,0,0,0,0-18.46,23.16,23.16,0,0,0-5.62-8.26A106.4,106.4,0,0,0,142.85,91a104.09,104.09,0,0,0-40.19-7.75,99.46,99.46,0,0,0-40.51,8.34A103.93,103.93,0,0,0,0,187a101.12,101.12,0,0,0,3.76,27.61,106.31,106.31,0,0,0,10.41,24.63,102.59,102.59,0,0,0,16.1,20.88,104.24,104.24,0,0,0,44.79,26.49,97.15,97.15,0,0,0,27.23,3.78,114.26,114.26,0,0,0,38.33-6.64c12.57-4.54,24.81-12.08,36.49-22.5l.47-.46a33.15,33.15,0,0,0,5.22-7.26,23,23,0,0,0,2.51-10.82V199.36A24.47,24.47,0,0,0,183.31,189.51Z"/></g></g></svg>