<svg id="Capa_1" data-name="Capa 1" xmlns="http://www.w3.org/2000/svg" xmlns:xlink="http://www.w3.org/1999/xlink" viewBox="0 0 80 80"><defs><style>.cls-1{fill:none;}.cls-2{fill:#f05928;}.cls-3{clip-path:url(#clip-path);}.cls-4{fill:#231f21;}.cls-5{fill:#3a3136;}.cls-6{fill:#ffbf9b;}.cls-7{fill:#efefef;}.cls-8{fill:#e4e4e0;}.cls-9{fill:#f3d1bb;}.cls-10{fill:#b9937e;}.cls-11{fill:#fff;}.cls-12{fill:#d5ad95;}.cls-13{fill:#2a35b8;}</style><clipPath id="clip-path"><circle class="cls-1" cx="40" cy="40" r="40"/></clipPath></defs><circle class="cls-2" cx="40" cy="40" r="40"/><g class="cls-3"><rect class="cls-4" x="26.86" y="30.86" width="26.29" height="23.59"/><path class="cls-5" d="M56,46.44h0a12.69,12.69,0,0,0,2.7,7.83l2.19,2.78-9.41-3.16V45.05Z"/><path class="cls-5" d="M24,46.44h0a12.69,12.69,0,0,1-2.7,7.83L19.1,57.05l9.41-3.16V45.05Z"/><polygon class="cls-6" points="46.49 49.62 40 47.63 33.78 49.53 40.17 56.68 46.49 49.62"/><path class="cls-7" d="M65.15,75.26l-.47-3.1-.6-4,0-.1L63.44,64l-.15-1a15,15,0,0,0-.49-2.11,13.84,13.84,0,0,0-9.13-9l-6.54-2-.64-.19-6.32,7.06-6.39-7.15-.91.28-6.54,2a13.84,13.84,0,0,0-9.13,9A15,15,0,0,0,16.71,63l-.15,1-.62,4.08v0l-.61,4-.47,3.1-.76,5.07H65.91Z"/><path class="cls-8" d="M40.17,45c-1.32,0-4.41.29-6.05,1.41v2.94h12.1V46.38C44.59,45.26,41.49,45,40.17,45Z"/><path class="cls-9" d="M34.73,36.06V50.39a5.27,5.27,0,1,0,10.54,0V36.06Z"/><path class="cls-10" d="M34.73,36.06v9.16l.88.74A6.88,6.88,0,0,0,40,47.63h0A6.88,6.88,0,0,0,44.39,46l.88-.74V36.06Z"/><path class="cls-11" d="M34.12,46.38c1.19,2.87,4.77,5.5,4.77,5.5l-2.64,5.24c-4.56-6.11-3.24-8-3.24-8Z"/><path class="cls-11" d="M46.22,46.38c-1.18,2.87-4.76,5.5-4.76,5.5l2.63,5.24c4.57-6.11,3.25-8,3.25-8Z"/><polygon class="cls-8" points="41.46 51.88 40.17 55.02 38.89 51.88 37.26 55.13 40.17 56.68 42.96 54.87 41.46 51.88"/><circle class="cls-9" cx="27.11" cy="35.1" r="3.97"/><path class="cls-10" d="M29.2,35.1A2.09,2.09,0,1,1,27.11,33,2.1,2.1,0,0,1,29.2,35.1Z"/><circle class="cls-9" cx="52.89" cy="35.1" r="3.97"/><circle class="cls-10" cx="52.89" cy="35.1" r="2.09"/><path class="cls-9" d="M40,12.42h0A13.14,13.14,0,0,0,26.86,25.56v.66a13.06,13.06,0,0,0,.34,3l1.91,8.17a9.42,9.42,0,0,0,4.14,5.83l1.45.92A9.86,9.86,0,0,0,40,45.67h0a9.86,9.86,0,0,0,5.3-1.54l1.45-.92a9.42,9.42,0,0,0,4.14-5.83l1.91-8.17a13.06,13.06,0,0,0,.34-3v-.66A13.14,13.14,0,0,0,40,12.42Z"/><path class="cls-5" d="M34,24.75a4.59,4.59,0,0,0-3.59,2l7.34-.33A4.59,4.59,0,0,0,34,24.75Z"/><path class="cls-5" d="M46,24.75a4.59,4.59,0,0,1,3.59,2l-7.34-.33A4.59,4.59,0,0,1,46,24.75Z"/><path class="cls-12" d="M41.7,35.71H38.3a5.21,5.21,0,0,0,.86.62,1.78,1.78,0,0,0,1,.26A3.07,3.07,0,0,0,41.7,35.71Z"/><path class="cls-12" d="M41.11,41.42H38.89a1.83,1.83,0,0,0,1.1.42A1.93,1.93,0,0,0,41.11,41.42Z"/><path class="cls-11" d="M44.45,38.8h-8.9a7.28,7.28,0,0,0,4.39,1.71A7.66,7.66,0,0,0,44.45,38.8Z"/><path class="cls-5" d="M34.34,28.44a1.21,1.21,0,0,0-.86.36,11.93,11.93,0,0,1-1.36-.63,2.73,2.73,0,0,0,1.05,1.21,1.26,1.26,0,0,0,0,.27,1.21,1.21,0,1,0,1.21-1.21Z"/><path class="cls-5" d="M45.66,28.44a1.21,1.21,0,0,1,.86.36,11.93,11.93,0,0,0,1.36-.63,2.73,2.73,0,0,1-1.05,1.21,1.26,1.26,0,0,1,0,.27,1.21,1.21,0,1,1-1.21-1.21Z"/><path class="cls-5" d="M41.88,9.7H38.12A14.13,14.13,0,0,0,24,23.83V46.44l4.52-1.39V26.29a9.77,9.77,0,0,1,1.53-1,12.88,12.88,0,0,1,.79-4.24,18.93,18.93,0,0,0-.1,3.91A17.58,17.58,0,0,1,35,23.83a16.16,16.16,0,0,1,1.09-5.36,27,27,0,0,0-.2,5.24,36.66,36.66,0,0,1,8.2,0,27,27,0,0,0-.2-5.24A16.16,16.16,0,0,1,45,23.83,17.58,17.58,0,0,1,49.27,25a18.93,18.93,0,0,0-.1-3.91A12.88,12.88,0,0,1,50,25.33a9.77,9.77,0,0,1,1.53,1V45.05L56,46.44V23.83A14.13,14.13,0,0,0,41.88,9.7Z"/><path class="cls-12" d="M36.08,31.54a6.35,6.35,0,0,0-3.78-.39A6.22,6.22,0,0,0,36.08,31.54Z"/><path class="cls-12" d="M43.92,31.54a6.35,6.35,0,0,1,3.78-.39A6.22,6.22,0,0,1,43.92,31.54Z"/><path class="cls-13" d="M32.79,49.81l1,30.52H20.35L20,54.83a2.28,2.28,0,0,1,1.72-2.25Z"/><polygon class="cls-2" points="20.21 70.87 33.45 70.07 33.35 66.9 20.17 67.69 20.21 70.87"/><polygon class="cls-2" points="33.19 62.21 20.1 62.99 20.15 66.17 33.3 65.38 33.19 62.21"/><path class="cls-13" d="M47.56,49.81l-1,30.52H60l.36-25.5a2.29,2.29,0,0,0-1.73-2.25Z"/><polygon class="cls-2" points="60.13 70.87 46.9 70.07 47 66.9 60.18 67.69 60.13 70.87"/><polygon class="cls-2" points="47.15 62.21 60.24 62.99 60.2 66.17 47.05 65.38 47.15 62.21"/></g></svg>