<svg id="Capa_1" data-name="Capa 1" xmlns="http://www.w3.org/2000/svg" xmlns:xlink="http://www.w3.org/1999/xlink" viewBox="0 0 80 80"><defs><style>.cls-1{fill:none;}.cls-2{fill:#31d1ff;}.cls-3{clip-path:url(#clip-path);}.cls-4{fill:#efefef;}.cls-5{fill:#ffc9ac;}.cls-6{fill:#2d426d;opacity:0.5;}.cls-7{fill:#0a1c75;}.cls-8{fill:#152049;}.cls-9{fill:#f05928;}.cls-10{fill:#e4e4e0;}.cls-11{fill:#b38e5d;}.cls-12{fill:#fff;}.cls-13{fill:#aa7536;}</style><clipPath id="clip-path"><circle class="cls-1" cx="40" cy="40" r="40"/></clipPath></defs><circle class="cls-2" cx="40" cy="40" r="40"/><g class="cls-3"><path class="cls-4" d="M65.82,75.31,64.72,68l0-.1-.78-5.23a15.57,15.57,0,0,0-.51-2.17A14.22,14.22,0,0,0,54,51.24l-5.41-1.66-1.31-.4v1.48a7.22,7.22,0,0,1-7.19,7.18h-.26a7.22,7.22,0,0,1-7.19-7.18V49.18l-1.63.5L26,51.24a14.22,14.22,0,0,0-9.37,9.28,15.57,15.57,0,0,0-.51,2.17l-.78,5.23v0l-1.11,7.35-.78,5.21H66.6Z"/><path class="cls-5" d="M33.13,53.13a7.18,7.18,0,0,0,6.74,4.71h.26a7.22,7.22,0,0,0,7.19-7.18V49.18L40,46.94l-7.32,2.24v1.48A7.22,7.22,0,0,0,33.13,53.13Z"/><polygon class="cls-6" points="22.33 80.52 23.21 69.76 23.97 59.34 19.05 80.52 22.33 80.52"/><polygon class="cls-6" points="57.92 80.52 57.05 69.76 56.29 59.34 61.2 80.52 57.92 80.52"/><path class="cls-7" d="M57.44,77.74l-1.2-.38a6.37,6.37,0,0,1-4.16-4.21l-2.37-7.82H30.29l-2.37,7.82a6.37,6.37,0,0,1-4.16,4.21l-1.2.38-.23,2.78H57.67Z"/><path class="cls-8" d="M31.78,70.07a3,3,0,0,0,2.4-3.56L34,65.33H30.29L29.1,69.26a3,3,0,0,0,2.1.86A3.79,3.79,0,0,0,31.78,70.07Z"/><path class="cls-7" d="M31.59,69.1h0a2.06,2.06,0,0,1-2.41-1.62L26,51l3.94-1.29,3.3,17A2,2,0,0,1,31.59,69.1Z"/><circle class="cls-9" cx="31.25" cy="67.11" r="0.94"/><path class="cls-8" d="M48.22,70.07a3,3,0,0,1-2.4-3.56l.23-1.18h3.66l1.19,3.93a3,3,0,0,1-2.1.86A3.79,3.79,0,0,1,48.22,70.07Z"/><path class="cls-7" d="M48.41,69.1h0a2.06,2.06,0,0,0,2.41-1.62L54,51l-3.94-1.29-3.3,17A2,2,0,0,0,48.41,69.1Z"/><circle class="cls-9" cx="48.75" cy="67.11" r="0.94"/><path class="cls-10" d="M40,46c-1.49,0-5,.32-6.85,1.59v3.33h13.7V47.6C45,46.33,41.49,46,40,46Z"/><path class="cls-11" d="M34,35.05V51.39a6,6,0,0,0,12,0V35.05Z"/><path class="cls-12" d="M33.15,47.6c1.34,3.25,5.4,6.23,5.4,6.23l-3,5.94c-5.17-6.93-3.68-9-3.68-9Z"/><path class="cls-12" d="M46.85,47.6c-1.34,3.25-5.4,6.23-5.4,6.23l3,5.94c5.17-6.93,3.68-9,3.68-9Z"/><polygon class="cls-10" points="41.45 53.83 40 57.39 38.55 53.83 36.84 57.22 40 59.27 43.16 57.22 41.45 53.83"/><path class="cls-13" d="M34,44.92s4.12,3.92,12,.58V42.1H34Z"/><circle class="cls-11" cx="26.76" cy="34.07" r="4.07"/><circle class="cls-13" cx="26.76" cy="34.07" r="2.14"/><circle class="cls-11" cx="53.24" cy="34.07" r="4.07"/><circle class="cls-13" cx="53.24" cy="34.07" r="2.14"/><path class="cls-11" d="M40,10.78h0a13.5,13.5,0,0,0-13.5,13.5V25A13.3,13.3,0,0,0,26.86,28l2,8.38a9.69,9.69,0,0,0,4.25,6l1.49.94A10.09,10.09,0,0,0,40,44.92h0a10.09,10.09,0,0,0,5.44-1.58l1.49-.94a9.69,9.69,0,0,0,4.25-6l2-8.38A13.3,13.3,0,0,0,53.5,25v-.67A13.5,13.5,0,0,0,40,10.78Z"/><path d="M33.88,23.44a4.73,4.73,0,0,0-3.68,2l7.54-.33A4.74,4.74,0,0,0,33.88,23.44Z"/><path d="M35.43,28.47a1.24,1.24,0,1,1-2.48,0,1.24,1.24,0,0,1,2.48,0Z"/><path d="M46.12,23.44a4.73,4.73,0,0,1,3.68,2l-7.54-.33A4.74,4.74,0,0,1,46.12,23.44Z"/><path d="M44.57,28.47a1.24,1.24,0,0,0,2.48,0,1.24,1.24,0,1,0-2.48,0Z"/><path class="cls-13" d="M42.09,33.53H37.91a6.19,6.19,0,0,0,1.06.76,2.16,2.16,0,0,0,1.26.32A3.73,3.73,0,0,0,42.09,33.53Z"/><path class="cls-12" d="M44.71,36.13A10.24,10.24,0,0,1,35.29,36a6.65,6.65,0,0,0,4.64,2.37A6.81,6.81,0,0,0,44.71,36.13Z"/><path class="cls-13" d="M42,39.07H38a3.31,3.31,0,0,0,2,.78A3.44,3.44,0,0,0,42,39.07Z"/><path class="cls-13" d="M35.68,30.21a5.12,5.12,0,0,0-3,0A5,5,0,0,0,35.68,30.21Z"/><path class="cls-13" d="M44.32,30.21a5.12,5.12,0,0,1,3,0A5,5,0,0,1,44.32,30.21Z"/><path d="M55.55,27.23c1.61-4.19,1-11.6-1.46-15.39A14.33,14.33,0,0,0,31,10.22a7.73,7.73,0,0,0-6.24,4.28,12.73,12.73,0,0,0-1,7.71A41.08,41.08,0,0,0,26,30.11l3,6.3-1.73-7.48c2.6-2.25,4-6.62,3.92-10.06a11.92,11.92,0,0,1,2,2.54,3.54,3.54,0,0,0-.5-4,9.76,9.76,0,0,0,5.46,3.28,23.27,23.27,0,0,0,6.46.43c-1.86-.86-3.73-1.62-5.64-2.34a107.23,107.23,0,0,1,11.69,2c-.45,2.76.74,5.9,2.41,8.14l-1.75,7.48Z"/></g></svg>