<svg id="Capa_1" data-name="Capa 1" xmlns="http://www.w3.org/2000/svg" xmlns:xlink="http://www.w3.org/1999/xlink" viewBox="0 0 80 80"><defs><style>.cls-1{fill:none;}.cls-2{fill:#0a1c75;}.cls-3{clip-path:url(#clip-path);}.cls-4{fill:#2a35b8;}.cls-5{fill:#e8c0a8;}.cls-6{fill:#31d1ff;}.cls-7{fill:#2d426d;opacity:0.5;}.cls-8{fill:#b9937e;}.cls-9{fill:#fff;}</style><clipPath id="clip-path"><circle class="cls-1" cx="40" cy="40" r="40"/></clipPath></defs><circle class="cls-2" cx="40" cy="40" r="40"/><g class="cls-3"><path class="cls-4" d="M63.52,72.94,62,63.14a13.51,13.51,0,0,0-9.4-10.9L39.27,48.15,25.91,52.24a13.51,13.51,0,0,0-9.4,10.9L15,72.94l7.52,1.22v6H56v-6Z"/><polygon class="cls-5" points="15.03 72.94 13.95 80.11 22.55 80.11 22.55 74.16 15.03 72.94"/><polygon class="cls-5" points="63.52 72.94 56 74.16 56 80.11 64.6 80.11 63.52 72.94"/><polygon class="cls-6" points="22.55 70.09 14.66 68.82 13.95 72.77 22.55 74.16 22.55 70.09"/><polygon class="cls-6" points="56 70.09 63.88 68.82 64.6 72.77 56 74.16 56 70.09"/><polygon class="cls-7" points="22.55 80.11 22.55 61.08 20.08 80.11 22.55 80.11"/><polygon class="cls-7" points="56 80.11 56 61.08 58.47 80.11 56 80.11"/><rect class="cls-6" x="25.26" y="67.02" width="10.15" height="1.6"/><path class="cls-5" d="M44.42,38.89H34.13v12a5.13,5.13,0,0,0,1,3h0l.09.1a1.56,1.56,0,0,0,.16.2l.38.47a4.54,4.54,0,0,0,7,0l.38-.47.16-.2.08-.1h0a5.13,5.13,0,0,0,1-3Z"/><path class="cls-8" d="M34.13,38.89v9l.86.71a6.67,6.67,0,0,0,4.28,1.64h0a6.68,6.68,0,0,0,4.29-1.64l.86-.71v-9Z"/><circle class="cls-5" cx="26.43" cy="38.04" r="3.88" transform="translate(-19.16 29.83) rotate(-45)"/><path class="cls-8" d="M24.39,38a2,2,0,1,0,2-2A2,2,0,0,0,24.39,38Z"/><circle class="cls-5" cx="52.12" cy="38.04" r="3.88" transform="translate(-11.63 47.99) rotate(-45)"/><path class="cls-8" d="M54.16,38a2,2,0,1,1-2-2A2,2,0,0,1,54.16,38Z"/><path class="cls-5" d="M39.27,15.87h0A12.84,12.84,0,0,0,26.43,28.71v.65a12.46,12.46,0,0,0,.34,2.92l1.86,8A9.23,9.23,0,0,0,32.68,46l1.42.9a9.65,9.65,0,0,0,5.17,1.51h0a9.69,9.69,0,0,0,5.18-1.51l1.42-.9a9.23,9.23,0,0,0,4.05-5.69l1.86-8a12.46,12.46,0,0,0,.34-2.92v-.65A12.84,12.84,0,0,0,39.27,15.87Z"/><path d="M33.45,27.92a4.53,4.53,0,0,0-3.51,1.94l7.18-.32A4.5,4.5,0,0,0,33.45,27.92Z"/><circle cx="33.75" cy="32.71" r="1.18"/><path d="M45.1,27.92a4.53,4.53,0,0,1,3.51,1.94l-7.18-.32A4.5,4.5,0,0,1,45.1,27.92Z"/><circle cx="44.8" cy="32.71" r="1.18"/><path class="cls-8" d="M41.26,37.52h-4a5.58,5.58,0,0,0,1,.73,2.05,2.05,0,0,0,1.2.3A3.52,3.52,0,0,0,41.26,37.52Z"/><path class="cls-8" d="M41.21,43.88H37.34a3.15,3.15,0,0,0,1.91.75A3.36,3.36,0,0,0,41.21,43.88Z"/><path class="cls-9" d="M44.8,41h-11a9,9,0,0,0,5.45,2.13A9.44,9.44,0,0,0,44.8,41Z"/><path class="cls-8" d="M37.74,36.77a28.18,28.18,0,0,0,.1-6.49c.26.87.41,1.5.62,2.24a6.59,6.59,0,0,1,.35,2.28A2.5,2.5,0,0,1,37.74,36.77Z"/><path d="M39.27,7.11A4.72,4.72,0,0,1,43,9.68c.37.88.28,1.9.89,2.7a1.29,1.29,0,0,0,1,.55c1.53,0,1.47-2.72,3.07-2.84a1.55,1.55,0,0,1,1.15.45A7.34,7.34,0,0,1,50.39,13,2.24,2.24,0,0,0,52,14.35c1,.12,2.1-.78,2.83.06A1.4,1.4,0,0,1,55,15.66c-1.12,4.39-.72,7.07-.88,11.4C54,31.19,53,35.87,50.22,39l1.72-7.44c-1.25-1.41-1.41-3.39-1.84-5.25A5.59,5.59,0,0,0,45.51,22l-1.62-.25c-1.53.27-3.07,1.59-4.62,1.59s-3.09-1.32-4.61-1.59l-2.43.66a5.36,5.36,0,0,0-3,2.18,16.79,16.79,0,0,0-2.57,6.9L28.33,39c-2.73-3.1-3.79-7.78-3.94-11.91-.16-4.33.24-7-.88-11.4a1.37,1.37,0,0,1,.25-1.25c.73-.84,1.85.06,2.83-.06A2.24,2.24,0,0,0,28.16,13a7.51,7.51,0,0,1,1.28-2.44,1.57,1.57,0,0,1,1.15-.45c1.6.12,1.55,2.83,3.07,2.84a1.31,1.31,0,0,0,1-.55c.61-.8.52-1.82.89-2.7A4.51,4.51,0,0,1,39.27,7.11Z"/></g></svg>